first trial
nRows=16
nColumns=38

# SIMM Motion File Header:
name Sujet_08_velo_80.mvnx
datacolumns 38
datarows 16
otherdata 1
range 3.9170 4.1670
endheader
time pelvis_tilt  pelvis_list  pelvis_rotation  pelvis_tx  pelvis_ty  pelvis_tz  hip_flexion_r  hip_adduction_r  hip_rotation_r  knee_angle_r  ankle_angle_r  subtalar_angle_r  mtp_angle_r  hip_flexion_l  hip_adduction_l  hip_rotation_l  knee_angle_l  ankle_angle_l  subtalar_angle_l  mtp_angle_l  lumbar_extension  lumbar_bending  lumbar_rotation  arm_flex_r  arm_add_r  arm_rot_r  elbow_flex_r  pro_sup_r  wrist_flex_r  wrist_dev_r  arm_flex_l  arm_add_l  arm_rot_l  elbow_flex_l  pro_sup_l  wrist_flex_l  wrist_dev_l
3.9170	-24.3766	3.9292	50.5459	0.0000	1.2500	-0.0000	50.7529	-5.1558	-14.7078	34.0976	-16.6573	5.7769	0.0000	97.7558	6.3003	2.2681	105.0013	-7.5646	3.7491	0.0000	-11.6748	-1.2122	0.0357	80.3006	-11.7152	25.1545	-5.4648	83.1445	-28.9984	-20.6345	83.9059	-0.7974	27.1168	-5.9152	64.6164	-24.0960	-19.0185	
3.9330	-24.4294	4.2092	50.9416	0.0000	1.2500	-0.0000	50.0846	-5.4657	-14.9562	35.8401	-15.3589	5.3701	-0.0000	99.2629	6.7349	2.7126	103.7864	-7.0963	2.9573	0.0000	-11.6829	-1.3275	-0.0803	80.3673	-12.0223	25.1303	-5.1866	82.8812	-28.8742	-20.6435	83.7321	-0.5567	27.0456	-5.7568	65.1041	-24.1280	-18.8786	
3.9500	-24.4671	4.4429	51.2269	0.0000	1.2500	-0.0000	50.0603	-5.7675	-14.9844	38.5218	-14.2927	5.1577	0.0000	100.0869	7.0670	2.9216	101.9258	-6.5455	2.2717	-0.0000	-11.7100	-1.4216	-0.1734	80.5052	-12.2538	25.1529	-4.9700	82.6488	-28.7607	-20.6449	83.6064	-0.3698	27.0280	-5.6662	65.4307	-24.1825	-18.7687	
3.9670	-24.4861	4.6225	51.4204	0.0000	1.2500	-0.0000	50.7645	-6.0656	-14.7933	42.2523	-13.6518	5.2308	0.0000	100.1153	7.3434	2.8557	99.3717	-5.8247	1.7261	-0.0000	-11.7624	-1.4815	-0.2506	80.7212	-12.3718	25.2245	-4.8692	82.4509	-28.6707	-20.6524	83.5703	-0.2459	27.1069	-5.7064	65.4986	-24.2773	-18.7056	
3.9830	-24.4917	4.7554	51.5032	0.0000	1.2500	-0.0000	52.1165	-6.3500	-14.3643	46.9359	-13.2383	5.5012	0.0000	99.4585	7.5156	2.5766	96.1677	-5.0346	1.3033	-0.0000	-11.8328	-1.5203	-0.3048	81.0102	-12.4145	25.3443	-4.8301	82.2845	-28.5913	-20.6525	83.5837	-0.1741	27.2393	-5.8158	65.4042	-24.3944	-18.6722	
4.0000	-24.4627	4.8062	51.4678	0.0000	1.2500	-0.0000	53.8290	-6.5795	-13.6355	52.0592	-13.0213	5.8386	0.0000	98.1890	7.4808	2.0354	92.4758	-4.3493	1.2468	-0.0000	-11.9053	-1.5254	-0.3213	81.2994	-12.4031	25.5061	-4.8173	82.1491	-28.5323	-20.6278	83.5688	-0.1286	27.3585	-5.9016	65.2638	-24.4828	-18.6432	
4.0170	-24.3721	4.7351	51.3086	0.0000	1.2500	-0.0000	55.8802	-6.7076	-12.5257	57.6493	-13.0999	6.2261	-0.0000	96.2346	7.2148	1.1416	88.2386	-3.7388	1.8450	0.0000	-11.9806	-1.4757	-0.2890	81.5674	-12.3344	25.7595	-4.8521	81.9972	-28.5121	-20.5691	83.4777	-0.0882	27.4386	-5.9364	65.0957	-24.5147	-18.6066	
4.0330	-24.2465	4.5827	51.0318	0.0000	1.2500	-0.0000	58.2955	-6.7257	-11.1321	63.6616	-13.3745	6.6880	-0.0000	93.6668	6.7834	-0.0463	83.5027	-3.2450	2.8111	0.0000	-12.0584	-1.3928	-0.2190	81.8344	-12.2094	26.0543	-4.9138	81.8765	-28.5123	-20.4855	83.3587	-0.0739	27.5059	-5.9474	64.8816	-24.5181	-18.5745	
4.0500	-24.1453	4.4339	50.6485	0.0000	1.2500	-0.0000	60.8570	-6.6614	-9.6650	69.4714	-13.5198	7.1489	0.0000	90.7740	6.2163	-1.3638	78.5882	-3.1398	3.5136	-0.0000	-12.1214	-1.3282	-0.1296	82.0899	-12.0570	26.2350	-4.9039	81.9289	-28.4862	-20.3874	83.2780	-0.1245	27.5716	-5.9224	64.6832	-24.5259	-18.5573	
4.0670	-24.0784	4.3064	50.1532	0.0000	1.2500	-0.0000	63.4984	-6.5268	-8.1548	74.9365	-13.4751	7.6450	-0.0000	87.5824	5.5070	-2.8610	73.5406	-3.5549	3.6369	0.0000	-12.1633	-1.2938	-0.0287	82.3137	-11.8897	26.1846	-4.7348	82.2793	-28.3921	-20.2610	83.2465	-0.2637	27.6843	-5.8138	64.5086	-24.5488	-18.5433	
4.0830	-24.0356	4.1820	49.5511	0.0000	1.2500	-0.0000	66.2840	-6.2808	-6.5920	80.1939	-13.2994	8.1345	-0.0000	84.0630	4.7213	-4.5430	68.3068	-4.3437	3.4858	-0.0000	-12.1907	-1.2776	0.0914	82.5261	-11.6961	26.0196	-4.4958	82.8022	-28.2718	-20.1209	83.2532	-0.4683	27.7951	-5.6692	64.3492	-24.5761	-18.5441	
4.1000	-24.0470	4.0917	48.8689	0.0000	1.2500	-0.0000	69.1882	-5.9025	-5.1218	85.0565	-12.8535	8.4271	0.0000	80.4236	3.9646	-6.1618	63.0754	-5.3538	3.3621	-0.0000	-12.2045	-1.2950	0.2363	82.7783	-11.4695	25.9355	-4.3517	83.2655	-28.2041	-20.0196	83.3297	-0.7064	27.7696	-5.6195	64.2429	-24.6087	-18.6052	
4.1170	-24.1465	4.0612	48.0988	0.0000	1.2500	-0.0000	72.2532	-5.4057	-3.7726	89.4900	-12.0870	8.3853	-0.0000	76.6481	3.2443	-7.6724	57.7444	-6.6190	3.4194	0.0000	-12.2024	-1.3617	0.4145	83.1262	-11.2047	26.0334	-4.3728	83.5669	-28.2318	-19.9865	83.5144	-0.9725	27.4789	-5.7239	64.2785	-24.6526	-18.7527	
4.1330	-24.3013	4.0617	47.2474	0.0000	1.2500	-0.0000	75.4273	-4.7705	-2.5471	93.5392	-11.0564	8.1464	-0.0000	72.7520	2.5740	-9.1417	52.4263	-8.1096	3.5121	0.0000	-12.1863	-1.4620	0.6177	83.5125	-10.9057	26.2124	-4.4879	83.8086	-28.3121	-19.9914	83.7653	-1.2733	27.0519	-5.9227	64.3686	-24.7024	-18.9614	
4.1500	-24.4422	4.0422	46.3634	0.0000	1.2500	-0.0000	78.5411	-3.9577	-1.5489	97.1421	-9.7872	7.9352	0.0000	68.9949	2.0040	-10.4542	47.6402	-9.5837	3.4983	0.0000	-12.1630	-1.5635	0.8259	83.8193	-10.5799	26.3643	-4.6480	84.0648	-28.3952	-19.9976	83.9943	-1.5945	26.7402	-6.1684	64.2873	-24.7422	-19.1992	
4.1670	-24.5473	3.9931	45.4077	0.0000	1.2500	-0.0000	81.5687	-2.9328	-0.8476	100.3679	-8.0861	7.8111	-0.0000	65.3659	1.4975	-11.5204	43.4585	-11.0301	3.2764	-0.0000	-12.1313	-1.6687	1.0446	84.0160	-10.2274	26.4586	-4.8872	84.3688	-28.4720	-20.0104	84.1888	-1.9523	26.6954	-6.5017	63.8620	-24.7702	-19.4873	
